<svg xmlns="http://www.w3.org/2000/svg" xmlns:xlink="http://www.w3.org/1999/xlink" width="1582" height="500" viewBox="0 0 1582 500">
  <defs>
    <clipPath id="clip-logo">
      <rect width="1582" height="500"/>
    </clipPath>
  </defs>
  <g id="logo" clip-path="url(#clip-logo)">
    <path id="Icon_simple-node-dot-js" data-name="Icon simple-node-dot-js" d="M238.809,3.192,15.661,116.32C7.326,120.549,2.229,128.362,2.253,136.8V363.137c0,8.417,5.12,16.25,13.432,20.459L238.833,496.828a30.125,30.125,0,0,0,26.911,0L488.8,383.638c8.335-4.271,13.432-12.042,13.456-20.459V136.8c0-8.417-5.144-16.25-13.479-20.5L265.768,3.172a30.126,30.126,0,0,0-26.911,0" transform="translate(-2.253 0)" fill="#fbc02d"/>
    <path id="Icon_awesome-taxi" data-name="Icon awesome-taxi" d="M270.7,125.086,257.813,75.375c-5.625-20.625-24.375-35.625-45-35.625H206.25V21A18.752,18.752,0,0,0,187.5,2.25h-75A18.752,18.752,0,0,0,93.75,21V39.75H87.187c-20.625,0-39.375,15-45,35.625L29.3,125.086A37.471,37.471,0,0,0,0,161.625V189.75a37.33,37.33,0,0,0,18.75,32.3V246A18.752,18.752,0,0,0,37.5,264.75H56.25A18.752,18.752,0,0,0,75,246V227.25H225V246a18.752,18.752,0,0,0,18.75,18.75H262.5A18.752,18.752,0,0,0,281.25,246V222.047A37.345,37.345,0,0,0,300,189.75V161.625A37.471,37.471,0,0,0,270.7,125.086ZM56.25,189.75A18.75,18.75,0,1,1,75,171,18.752,18.752,0,0,1,56.25,189.75Zm12.041-65.625L78.369,85.242c1.307-4.781,5.619-7.992,8.824-7.992H212.818c3.205,0,7.518,3.211,8.7,7.535l10.189,39.34ZM243.75,189.75A18.75,18.75,0,1,1,262.5,171,18.752,18.752,0,0,1,243.75,189.75Z" transform="translate(100 116.5)"/>
    <text id="TAXINOD" transform="translate(574 384)" fill="#fbc02d" font-size="350" font-family="AgencyFB-Bold, Agency FB" font-weight="700"><tspan x="0" y="0">TAXINOD</tspan></text>
  </g>
</svg>
